<svg width="552" height="552" viewBox="0 0 552 552" fill="none" xmlns="http://www.w3.org/2000/svg">
<path d="M0 275.686C0 428.287 123.573 552 276 552C428.427 552 552 428.287 552 275.686C552 205.98 526.282 142.553 483.627 93.57C473.591 92.942 461.045 87.9181 449.127 79.1263C434.073 67.8225 424.036 53.3788 423.409 42.0751C385.773 18.2116 341.236 2.51195 293.564 0C287.918 9.4198 272.236 16.3276 254.045 16.9556C237.736 17.5836 222.682 13.1877 215.155 5.65188C92.2091 33.9113 0 143.809 0 275.686ZM494.291 340.369C501.191 315.877 516.873 298.922 528.791 302.061C540.709 305.829 544.473 328.437 536.945 352.928C530.045 377.42 514.364 394.375 502.445 391.236C490.527 387.468 486.764 364.86 494.291 340.369ZM102.245 162.648C89.0727 183.372 69.6273 194.048 58.3364 187.14C47.0455 180.232 48.3 157.625 61.4727 136.901C74.6455 116.177 94.0909 105.502 105.382 112.41C116.045 119.945 114.791 142.553 102.245 162.648ZM318.655 104.246C318.655 121.201 299.836 135.645 276 135.645C252.164 135.645 233.345 121.829 233.345 104.246C233.345 87.2901 252.164 72.8464 276 72.8464C299.836 72.8464 318.655 86.6621 318.655 104.246ZM397.691 200.956C389.536 178.976 395.809 156.369 411.491 150.717C427.173 145.065 445.991 158.253 454.145 180.232C462.3 202.212 456.027 224.819 440.345 230.471C424.664 236.123 405.845 222.935 397.691 200.956ZM366.327 334.089C377.618 312.109 402.082 301.433 420.273 311.481C438.464 321.529 444.736 346.648 432.818 368.628C421.527 390.608 397.064 401.283 378.873 391.236C360.682 382.444 354.409 356.696 366.327 334.089ZM299.836 503.645C324.927 499.877 347.509 505.529 348.764 517.461C350.645 529.393 331.827 541.952 306.109 545.72C281.018 549.488 258.436 543.836 257.182 531.904C255.927 519.973 274.118 507.413 299.836 503.645ZM191.318 397.515C196.964 378.048 220.8 368.628 244.636 375.536C268.473 382.444 283.527 403.795 277.882 423.263C272.236 442.73 248.4 452.15 224.564 445.242C200.727 437.706 185.673 416.355 191.318 397.515ZM126.709 244.915C126.709 221.679 143.645 202.84 163.718 202.84C183.791 202.84 200.727 221.679 200.727 244.915C200.727 268.15 183.791 286.99 163.718 286.99C143.645 286.99 126.709 268.15 126.709 244.915ZM45.1636 401.911C32.6182 380.56 30.7364 357.952 41.4 352.3C51.4364 346.648 69.6273 359.208 82.1727 381.188C94.7182 402.539 96.6 425.147 85.9364 430.799C75.9 436.451 57.7091 423.263 45.1636 401.911Z" fill="#E1E1E1" fill-opacity="0.5"/>
</svg>
