<svg width="1106" height="186" viewBox="0 0 1106 186" fill="none" xmlns="http://www.w3.org/2000/svg">
<path opacity="0.6" d="M105.124 35.4821C108.945 42.1269 111.105 50.1837 111.603 59.6526V59.9018C111.603 61.0646 111.603 62.2274 111.603 63.3903C111.603 64.387 111.52 65.3837 111.354 66.3804C110.357 74.3542 107.699 81.6635 103.38 88.3083C99.2272 94.9531 93.9944 100.601 87.6819 105.253C81.3693 109.904 74.3923 113.309 66.7507 115.469C59.1092 117.462 51.3016 117.795 43.3278 116.466C43.4939 118.791 43.577 121.117 43.577 123.443C43.577 125.602 43.577 128.842 43.577 133.161C43.577 137.314 43.577 142.962 43.577 150.105C43.7431 157.248 43.9923 166.883 44.3245 179.01V179.259C44.1584 179.259 43.9923 179.342 43.8262 179.508C43.8262 179.508 43.7431 179.508 43.577 179.508C41.2513 180.173 38.2612 180.671 34.6065 181.003C31.118 181.169 27.3803 181.336 23.3934 181.502C19.5727 181.502 15.7519 181.419 11.9311 181.252C8.11037 181.086 4.78796 180.837 1.96392 180.505C1.46556 168.378 1.21638 155.255 1.21638 141.134C1.21638 126.848 1.21638 112.23 1.21638 97.2788C1.21638 82.328 1.13332 67.2941 0.967203 52.1772C0.967203 37.0602 0.718023 22.6078 0.219663 8.81984C7.03058 6.99252 14.4229 5.66356 22.3967 4.83296C30.5366 4.00237 38.5934 3.91931 46.5672 4.58379C54.707 5.24827 62.5977 6.74335 70.2393 9.06903C77.8808 11.2286 84.6087 14.551 90.4229 19.0362C96.4032 23.3553 101.304 28.8373 105.124 35.4821ZM72.9802 54.1706C71.8174 52.1772 70.1562 50.516 67.9966 49.187C63.8436 45.8646 59.0262 43.7881 53.5442 42.9575C48.0622 41.9608 42.6633 42.1269 37.3475 43.4559C37.0153 43.4559 36.7661 43.5389 36.6 43.7051C36.7661 46.6952 36.7661 49.8515 36.6 53.1739C36.6 56.4963 36.6 59.8187 36.6 63.1411C36.7661 66.4635 36.9322 69.7028 37.0983 72.8591C37.4306 75.8493 38.012 78.5903 38.8426 81.0821H39.5901C42.248 80.9159 45.0721 80.8329 48.0622 80.8329C51.0524 80.6668 53.9595 80.4176 56.7835 80.0853C59.7737 79.7531 62.5977 79.1717 65.2557 78.3411C68.0797 77.3444 70.4884 75.8493 72.4819 73.8558C73.8108 72.0285 74.7245 69.952 75.2229 67.6263C75.8873 65.3007 75.9704 62.975 75.472 60.6493C75.1398 58.3236 74.3092 56.1641 72.9802 54.1706ZM147.004 6.82641C150.991 6.99253 156.722 6.99253 164.198 6.82641H170.178V7.82312C170.178 22.1094 169.929 36.4788 169.43 50.9313C169.098 65.3837 168.766 79.9192 168.434 94.5378C168.268 108.99 168.268 123.443 168.434 137.895C168.6 152.348 169.098 166.634 169.929 180.754C168.6 182.083 165.776 182.831 161.457 182.997C157.304 183.329 152.735 183.412 147.752 183.246C142.934 183.08 138.283 182.831 133.798 182.498C129.312 182.332 126.239 182.498 124.578 182.997C125.741 168.046 126.239 153.012 126.073 137.895C125.907 122.778 125.575 107.827 125.076 93.0427C124.744 78.0919 124.495 63.3903 124.329 48.9378C124.329 34.3193 125.076 20.0329 126.571 6.07886V5.58051C127.402 5.41438 128.98 5.49744 131.306 5.82969C133.798 5.9958 135.625 6.07886 136.788 6.07886C139.778 6.24498 143.183 6.49416 147.004 6.82641ZM233.162 44.2034C230.836 44.7018 229.009 45.6154 227.68 46.9444C227.348 47.2766 227.016 47.8581 226.683 48.6887C226.517 49.3531 226.351 49.8515 226.185 50.1837C225.853 50.6821 225.521 53.5892 225.188 58.905C225.022 64.2209 224.856 70.5334 224.69 77.8427C224.524 85.152 224.441 92.7935 224.441 100.767C224.441 108.575 224.69 115.386 225.188 121.2C225.687 126.018 226.933 130.752 228.926 135.403C231.086 139.889 234.574 142.796 239.392 144.125C243.046 144.457 246.452 143.959 249.608 142.63C252.93 141.134 255.422 138.726 257.083 135.403C258.911 131.583 259.658 127.596 259.326 123.443C259.16 119.124 259.492 114.887 260.323 110.734C262.648 111.067 265.223 111.15 268.047 110.984C271.038 110.818 274.028 110.734 277.018 110.734C280.008 110.734 282.915 110.818 285.739 110.984C288.729 111.15 291.387 111.565 293.713 112.23C296.537 120.868 297.284 129.506 295.956 138.144C294.627 146.616 291.719 154.258 287.234 161.069C282.749 167.88 276.852 173.528 269.542 178.013C262.399 182.332 254.259 184.575 245.123 184.741C239.142 185.572 232.996 185.572 226.683 184.741C220.371 184.077 214.474 182.498 208.992 180.007C203.51 177.349 198.858 173.694 195.038 169.043C191.383 164.391 189.223 158.577 188.559 151.6C188.227 145.62 187.978 139.39 187.811 132.912C187.645 126.433 187.479 119.207 187.313 111.233C187.313 103.093 187.313 93.9564 187.313 83.823C187.479 73.5236 187.645 61.646 187.811 48.1903C187.479 45.3663 187.562 42.5422 188.061 39.7182C188.725 36.728 189.556 33.987 190.552 31.4952C192.047 27.1761 193.875 23.1892 196.034 19.5346C198.36 15.8799 201.101 12.6406 204.257 9.81656C206.085 8.4876 208.078 7.40782 210.238 6.57722C212.397 5.5805 214.64 4.7499 216.965 4.08542C224.607 1.59362 232.165 0.596904 239.641 1.09527C247.116 1.59362 254.093 3.33788 260.572 6.32804C267.217 9.15208 273.197 12.9728 278.513 17.7903C283.829 22.6078 288.065 28.1728 291.221 34.4854C294.377 40.6318 296.288 47.3597 296.952 54.669C297.617 61.9783 296.62 69.4537 293.962 77.0952C287.816 78.4241 281.752 78.9225 275.772 78.5903C269.958 78.0919 263.894 77.2613 257.582 76.0985C257.083 72.9422 256.751 69.3706 256.585 65.3837C256.585 61.3968 256.17 57.7422 255.339 54.4198C254.509 50.9313 252.93 48.1072 250.605 45.9477C248.445 43.7881 244.957 42.7914 240.139 42.9575C237.98 43.2898 235.654 43.7051 233.162 44.2034ZM384.485 71.6132C380.498 78.5903 377.009 85.5673 374.019 92.5443L416.629 181.003C411.313 182.166 405.499 182.581 399.186 182.249C393.04 181.917 387.309 181.668 381.993 181.502C378.504 177.515 375.265 172.78 372.275 167.298C369.285 161.65 366.377 155.836 363.553 149.856C360.895 143.875 358.238 137.978 355.58 132.164C352.922 126.35 350.264 121.117 347.606 116.466C347.44 121.283 347.357 126.516 347.357 132.164C347.523 137.646 347.689 143.211 347.855 148.859C348.021 154.507 348.104 160.072 348.104 165.554C348.27 171.036 348.353 176.103 348.353 180.754C346.028 181.419 343.287 181.834 340.13 182C336.974 182.332 333.652 182.498 330.163 182.498C326.675 182.498 323.269 182.332 319.947 182C316.791 181.668 314.133 181.252 311.973 180.754C310.644 152.181 310.395 123.526 311.226 94.787C312.222 65.8821 312.638 36.8941 312.471 7.82312C317.953 7.657 323.518 7.74006 329.167 8.07231C334.981 8.23843 340.546 8.32149 345.862 8.32149C346.194 17.7903 346.277 27.7575 346.111 38.2231C345.945 48.6887 346.028 58.6559 346.36 68.1247C346.36 68.2908 346.443 68.2078 346.609 67.8755C346.941 67.3772 347.274 66.9619 347.606 66.6296C351.094 62.1444 354.251 57.493 357.075 52.6755C359.899 47.8581 362.557 42.9575 365.048 37.9739C367.706 32.9903 370.364 28.0067 373.022 23.0231C375.846 18.0395 379.003 13.0559 382.491 8.07231C387.807 8.40454 393.455 8.40454 399.435 8.07231C405.416 7.74006 411.064 7.98924 416.38 8.81984C414.386 15.7969 411.562 22.7739 407.907 29.751C404.419 36.728 400.598 43.7051 396.445 50.6821C392.458 57.6591 388.471 64.6362 384.485 71.6132ZM529.254 154.839C529.254 156.501 529.337 157.996 529.503 159.325C529.836 165.305 530.002 169.873 530.002 173.03C530.002 176.02 529.753 178.262 529.254 179.757C528.922 181.086 528.258 181.834 527.261 182C526.264 182 524.852 182 523.025 182C521.197 181.834 518.789 181.834 515.799 182C512.974 182.166 508.074 182.332 501.097 182.498C494.286 182.664 484.817 182.748 472.69 182.748C460.73 182.748 444.699 182.581 424.599 182.249V177.764C425.097 165.305 425.512 154.092 425.845 144.125C426.177 133.991 426.343 124.606 426.343 115.967C426.509 107.163 426.592 98.6908 426.592 90.5509C426.592 82.411 426.509 74.105 426.343 65.6329C426.177 57.1608 426.011 48.1903 425.845 38.7214C425.678 29.0865 425.512 18.4548 425.346 6.82641C427.007 6.16193 429.582 5.66356 433.071 5.33132C436.559 4.83296 440.297 4.58379 444.284 4.58379C448.271 4.58379 452.175 4.83296 455.995 5.33132C459.816 5.82968 462.889 6.57722 465.215 7.57394C464.883 18.3717 464.717 29.5018 464.717 40.9641C464.883 52.2602 465.049 63.6395 465.215 75.1017C465.381 86.564 465.464 98.0263 465.464 109.489C465.63 120.785 465.63 131.749 465.464 142.38V142.63C466.627 142.297 468.787 142.214 471.943 142.38C475.265 142.38 479.086 142.463 483.405 142.63C487.724 142.796 492.293 143.045 497.11 143.377C502.094 143.543 506.745 143.709 511.064 143.875C515.549 144.042 519.453 144.208 522.776 144.374C526.264 144.374 528.673 144.291 530.002 144.125C530.002 145.952 529.919 147.779 529.753 149.607C529.587 151.268 529.42 153.012 529.254 154.839ZM612.963 147.862C623.595 148.361 634.559 148.444 645.855 148.112V148.61C646.187 153.926 646.27 159.491 646.104 165.305C645.938 170.953 645.19 176.269 643.861 181.252C626.917 181.086 609.641 181.336 592.032 182C574.589 182.498 557.811 182.083 541.698 180.754C541.698 166.302 541.532 152.015 541.199 137.895C540.867 123.609 540.618 109.406 540.452 95.2853C540.286 81.1651 540.286 67.0449 540.452 52.9247C540.618 38.8045 541.116 24.6012 541.947 10.3149C548.426 9.98268 555.403 9.7335 562.878 9.56738C570.519 9.23515 578.161 8.98597 585.803 8.81984C593.444 8.65372 600.836 8.4876 607.98 8.32149C615.123 8.15537 621.435 8.07231 626.917 8.07231C632.399 8.07231 636.801 8.15537 640.124 8.32149C643.446 8.4876 645.107 8.65372 645.107 8.81984C645.938 14.634 646.104 20.5313 645.606 26.5116C645.274 32.492 645.107 38.3892 645.107 44.2034V44.4526C639.792 45.6154 634.393 46.363 628.911 46.6952C623.595 46.8613 618.196 46.9444 612.714 46.9444C607.232 46.7783 601.75 46.6952 596.268 46.6952C590.786 46.6952 585.304 46.9444 579.822 47.4428H579.075L578.825 47.6919C578.992 52.5094 578.742 57.493 578.078 62.6427C577.58 67.6263 577.912 72.3608 579.075 76.846L579.324 77.0952C584.307 77.4274 589.374 77.5935 594.524 77.5935C599.674 77.5935 604.823 77.6766 609.973 77.8427V78.0919C610.804 83.74 611.053 89.3881 610.721 95.0362C610.388 100.684 610.305 106.581 610.471 112.728C607.98 113.392 605.156 113.808 601.999 113.974C598.843 113.974 595.77 113.974 592.78 113.974C589.956 113.974 587.381 114.057 585.055 114.223C582.729 114.389 581.151 114.804 580.321 115.469C579.49 120.286 579.158 125.685 579.324 131.666C579.656 137.646 579.988 142.63 580.321 146.616L580.57 146.866C591.534 146.866 602.331 147.198 612.963 147.862ZM747.133 97.0296C747.465 97.6941 748.047 98.5247 748.877 99.5214C751.535 102.844 754.027 106.166 756.353 109.489C758.845 112.645 760.921 116.05 762.582 119.705C764.41 123.194 765.655 127.097 766.32 131.416C766.984 135.736 766.818 140.553 765.822 145.869C764.493 153.677 761.918 160.072 758.097 165.056C754.442 169.873 749.957 173.611 744.641 176.269C739.325 178.927 733.428 180.754 726.949 181.751C720.471 182.581 713.743 182.997 706.766 182.997C699.955 183.163 693.061 182.997 686.084 182.498C679.273 182 672.877 181.668 666.897 181.502C665.9 181.502 664.904 181.502 663.907 181.502C663.076 181.502 662.246 181.336 661.415 181.003C660.418 152.265 660.169 123.775 660.668 95.5345C661.166 67.128 661.166 38.4723 660.668 9.56738L660.917 9.31821C667.562 7.49088 674.622 6.07886 682.097 5.08214C689.572 4.08542 696.965 3.75318 704.274 4.08542C711.583 4.41766 718.56 5.49745 725.205 7.32476C732.016 9.15208 737.996 12.1422 743.146 16.2952C748.296 20.2821 752.366 25.5149 755.356 31.9936C758.346 38.3062 759.841 46.1138 759.841 55.4165C759.841 62.3936 758.595 69.2045 756.104 75.8493C753.778 82.4941 750.954 88.6405 747.631 94.2886C746.967 95.4514 746.801 96.3651 747.133 97.0296ZM719.474 145.371C721.8 144.374 723.793 142.879 725.454 140.885C727.282 138.393 728.112 135.403 727.946 131.915C727.946 128.426 727.365 125.27 726.202 122.446C725.205 120.453 723.71 118.708 721.717 117.213C719.723 115.552 717.647 114.472 715.487 113.974C712.331 113.143 709.092 112.728 705.769 112.728C702.447 112.562 699.207 112.313 696.051 111.98C695.387 114.472 694.805 117.296 694.307 120.453C693.809 123.609 693.476 126.848 693.31 130.171C693.31 133.327 693.559 136.4 694.058 139.39C694.556 142.38 695.47 144.872 696.799 146.866L697.297 147.115C699.623 147.115 702.031 147.198 704.523 147.364C707.181 147.364 709.756 147.281 712.248 147.115C714.906 146.783 717.314 146.201 719.474 145.371ZM719.723 75.6001C722.049 74.2711 723.876 72.3608 725.205 69.869C726.368 67.8755 727.365 65.5498 728.195 62.8919C729.026 60.234 728.777 57.5761 727.448 54.9182C726.119 52.2602 724.375 50.2668 722.215 48.9378C720.222 47.4428 717.896 46.363 715.238 45.6985C711.916 45.034 708.344 44.7018 704.523 44.7018C700.869 44.5357 697.795 45.1171 695.304 46.446C695.636 50.2668 695.47 54.9182 694.805 60.4001C694.307 65.8821 694.805 71.5302 696.3 77.3444C698.792 77.6766 701.45 77.9258 704.274 78.0919C707.098 78.258 709.839 78.175 712.497 77.8427C715.155 77.5105 717.564 76.7629 719.723 75.6001ZM855.447 83.0755C856.609 87.893 857.523 91.7137 858.188 94.5378L876.876 181.751V182C871.892 182.997 866.41 183.329 860.43 182.997C854.45 182.831 848.802 182.166 843.486 181.003H843.237C842.24 178.345 841.243 175.189 840.247 171.534C839.416 167.88 838.502 164.142 837.506 160.321C836.675 156.501 835.761 152.846 834.765 149.357C833.768 145.869 832.688 142.879 831.525 140.387C829.366 140.055 827.704 139.889 826.542 139.889C825.379 139.889 824.299 139.889 823.302 139.889C822.472 139.889 821.475 139.972 820.312 140.138C819.315 140.138 817.903 140.138 816.076 140.138C814.913 142.796 813.917 145.952 813.086 149.607C812.421 153.095 811.674 156.833 810.843 160.82C810.179 164.64 809.431 168.378 808.601 172.033C807.77 175.687 806.607 178.927 805.112 181.751C804.946 181.751 804.78 181.834 804.614 182C804.614 182 804.531 182 804.365 182C803.036 182.332 799.713 182.332 794.397 182C789.082 181.668 780.776 181.585 769.479 181.751C769.313 181.751 769.147 181.668 768.981 181.502C769.313 180.339 769.895 177.099 770.725 171.784C771.556 166.468 772.719 159.574 774.214 151.102C775.709 142.63 777.453 132.912 779.447 121.948C781.606 110.818 784.098 99.023 786.922 86.564C789.746 74.105 792.819 61.1477 796.142 47.6919C799.464 34.2362 803.119 20.8636 807.106 7.57394C808.268 7.40782 809.514 7.32476 810.843 7.32476C812.172 7.32476 813.917 7.32476 816.076 7.32476C818.236 7.32476 820.977 7.32476 824.299 7.32476C827.788 7.15865 832.273 6.8264 837.755 6.32804C838.253 8.4876 839.001 11.81 839.997 16.2952C841.16 20.6144 842.323 25.598 843.486 31.2461C844.815 36.728 846.144 42.6253 847.473 48.9378C848.968 55.2504 850.38 61.3138 851.709 67.128C853.038 72.9422 854.284 78.258 855.447 83.0755ZM823.302 110.984C826.459 110.818 829.615 110.734 832.771 110.734C831.11 96.4482 829.615 85.3181 828.286 77.3444C827.123 69.3706 826.043 63.9717 825.047 61.1477C824.216 58.3236 823.302 57.7422 822.306 59.4034C821.475 60.8985 820.644 64.0548 819.814 68.8722C819.149 73.6897 818.319 79.7531 817.322 87.0624C816.491 94.3717 815.495 102.262 814.332 110.734C817.156 110.901 820.146 110.984 823.302 110.984ZM989.653 154.839C989.653 156.501 989.736 157.996 989.903 159.325C990.235 165.305 990.401 169.873 990.401 173.03C990.401 176.02 990.152 178.262 989.653 179.757C989.321 181.086 988.657 181.834 987.66 182C986.663 182 985.251 182 983.424 182C981.597 181.834 979.188 181.834 976.198 182C973.374 182.166 968.473 182.332 961.496 182.498C954.685 182.664 945.216 182.748 933.09 182.748C921.129 182.748 905.098 182.581 884.998 182.249V177.764C885.496 165.305 885.911 154.092 886.244 144.125C886.576 133.991 886.742 124.606 886.742 115.967C886.908 107.163 886.991 98.6908 886.991 90.5509C886.991 82.411 886.908 74.105 886.742 65.6329C886.576 57.1608 886.41 48.1903 886.244 38.7214C886.078 29.0865 885.911 18.4548 885.745 6.82641C887.407 6.16193 889.981 5.66356 893.47 5.33132C896.958 4.83296 900.696 4.58379 904.683 4.58379C908.67 4.58379 912.574 4.83296 916.394 5.33132C920.215 5.82968 923.288 6.57722 925.614 7.57394C925.282 18.3717 925.116 29.5018 925.116 40.9641C925.282 52.2602 925.448 63.6395 925.614 75.1017C925.78 86.564 925.863 98.0263 925.863 109.489C926.029 120.785 926.029 131.749 925.863 142.38V142.63C927.026 142.297 929.186 142.214 932.342 142.38C935.664 142.38 939.485 142.463 943.804 142.63C948.123 142.796 952.692 143.045 957.509 143.377C962.493 143.543 967.144 143.709 971.463 143.875C975.948 144.042 979.852 144.208 983.175 144.374C986.663 144.374 989.072 144.291 990.401 144.125C990.401 145.952 990.318 147.779 990.152 149.607C989.986 151.268 989.82 153.012 989.653 154.839ZM1104.51 154.839C1104.51 156.501 1104.59 157.996 1104.76 159.325C1105.09 165.305 1105.26 169.873 1105.26 173.03C1105.26 176.02 1105.01 178.262 1104.51 179.757C1104.18 181.086 1103.51 181.834 1102.52 182C1101.52 182 1100.11 182 1098.28 182C1096.45 181.834 1094.04 181.834 1091.05 182C1088.23 182.166 1083.33 182.332 1076.35 182.498C1069.54 182.664 1060.07 182.748 1047.95 182.748C1035.99 182.748 1019.95 182.581 999.854 182.249V177.764C1000.35 165.305 1000.77 154.092 1001.1 144.125C1001.43 133.991 1001.6 124.606 1001.6 115.967C1001.76 107.163 1001.85 98.6908 1001.85 90.5509C1001.85 82.411 1001.76 74.105 1001.6 65.6329C1001.43 57.1608 1001.27 48.1903 1001.1 38.7214C1000.93 29.0865 1000.77 18.4548 1000.6 6.82641C1002.26 6.16193 1004.84 5.66356 1008.33 5.33132C1011.81 4.83296 1015.55 4.58379 1019.54 4.58379C1023.53 4.58379 1027.43 4.83296 1031.25 5.33132C1035.07 5.82968 1038.14 6.57722 1040.47 7.57394C1040.14 18.3717 1039.97 29.5018 1039.97 40.9641C1040.14 52.2602 1040.3 63.6395 1040.47 75.1017C1040.64 86.564 1040.72 98.0263 1040.72 109.489C1040.89 120.785 1040.89 131.749 1040.72 142.38V142.63C1041.88 142.297 1044.04 142.214 1047.2 142.38C1050.52 142.38 1054.34 142.463 1058.66 142.63C1062.98 142.796 1067.55 143.045 1072.37 143.377C1077.35 143.543 1082 143.709 1086.32 143.875C1090.8 144.042 1094.71 144.208 1098.03 144.374C1101.52 144.374 1103.93 144.291 1105.26 144.125C1105.26 145.952 1105.17 147.779 1105.01 149.607C1104.84 151.268 1104.68 153.012 1104.51 154.839Z" fill="url(#paint0_linear_498_372)"/>
<defs>
<linearGradient id="paint0_linear_498_372" x1="536" y1="29" x2="536" y2="241" gradientUnits="userSpaceOnUse">
<stop stop-color="#1DCE5C"/>
<stop offset="1" stop-color="white" stop-opacity="0"/>
</linearGradient>
</defs>
</svg>
