<svg width="79" height="79" viewBox="0 0 79 79" fill="none" xmlns="http://www.w3.org/2000/svg">
<path d="M53.9642 44.924L60.8884 52.5746C62.3841 54.2259 63.8957 55.8644 65.3628 57.5428C65.8103 58.056 66.0206 58.1134 66.43 57.4854C69.2525 53.1691 71.0573 48.4735 71.6116 43.346C72.5562 34.6179 70.4392 26.6963 65.0585 19.7278C60.033 13.2183 53.4306 9.12046 45.3563 7.68596C35.5825 5.94862 26.7309 8.24063 18.9545 14.4887C18.6853 14.7038 18.4448 14.9095 18.0513 14.9079C15.052 14.8919 12.0526 14.9079 9.05482 14.8983C8.95444 14.8843 8.85572 14.8603 8.76014 14.8266C9.3049 13.9037 10.0456 13.1928 10.7433 12.4597C16.7309 6.16858 23.9991 2.15039 32.5369 0.644167C40.7545 -0.804677 48.7459 0.166001 56.2834 3.80485C66.6514 8.81284 73.7604 16.8205 77.1388 27.8502C80.7053 39.4904 79.1124 50.5743 72.6501 60.9043C70.4424 64.4379 67.6453 67.4838 64.4198 70.1329C63.9594 70.5106 63.7237 70.5122 63.343 70.0627C59.5902 65.6636 55.8278 61.273 52.0559 56.8909C49.3088 53.6903 46.5611 50.4903 43.8128 47.2909C43.5548 46.988 43.2521 46.9291 42.8969 46.9291C38.0387 46.9291 33.1804 46.9434 28.3254 46.9291C27.771 46.9291 27.6675 47.1522 27.6707 47.6383C27.6882 50.0547 27.6595 52.4726 27.6914 54.8889C27.6914 55.5169 27.5767 55.764 26.8758 55.7544C23.9301 55.713 20.9843 55.713 18.0386 55.7544C17.376 55.7624 17.3298 55.4803 17.3314 54.9575C17.3473 49.857 17.3553 44.7566 17.3218 39.6562C17.3218 38.8879 17.5368 38.6807 18.3014 38.6823C27.6181 38.7078 36.938 38.695 46.2499 38.7014C47.5688 38.7014 48.8415 38.5149 50.0234 37.9045C51.2722 37.2574 52.0703 36.2915 52.0081 34.8171C51.946 33.3428 51.2117 32.353 49.8657 31.7393C48.5198 31.1257 47.1324 31.1018 45.7243 31.1018C33.5696 31.0879 21.4134 31.0826 9.25552 31.0858C8.49572 31.0858 8.11662 31.2452 7.92866 32.0995C6.1765 40.069 7.07807 47.6878 10.9647 54.865C15.1635 62.6177 21.5286 67.8456 29.9373 70.4851C36.1495 72.4392 42.4127 72.4265 48.6679 70.5919C49.8432 70.2574 50.9943 69.8431 52.1133 69.3519C52.5911 69.1367 52.8316 69.2817 53.1152 69.6165C54.399 71.1338 55.6749 72.6608 56.997 74.1463C57.4239 74.6244 57.2853 74.8062 56.7915 75.042C52.5656 77.0631 48.1375 78.3972 43.472 78.8164C32.2438 79.8157 22.247 76.7443 13.6805 69.3949C7.18319 63.8163 2.9605 56.792 1.02835 48.4225C-0.80186 40.4866 -0.156748 32.7227 2.70564 25.1231C2.97643 24.4042 3.33004 23.7157 3.60561 22.9984C3.7872 22.5203 4.08347 22.3991 4.57885 22.3991C18.3811 22.4119 32.1833 22.38 45.9839 22.4246C49.9119 22.4374 53.7412 23.0335 57.263 24.9924C64.8817 29.2289 63.8447 39.7996 57.7504 43.4257C56.6004 44.1095 55.3611 44.5558 53.9642 44.924Z" fill="#1DCE5C"/>
</svg>
