<svg width="596" height="68" viewBox="0 0 596 68" fill="none" xmlns="http://www.w3.org/2000/svg">
<g clip-path="url(#clip0_529_1343)">
<rect width="596" height="68" rx="6" fill="#1DCE5C"/>
<path d="M446.5 0H596V68H274L446.5 0Z" fill="white"/>
<path d="M475 48.9249C475 85.4164 505.333 115 542.748 115C580.164 115 610.497 85.4164 610.497 48.9249C610.497 32.256 604.184 17.0887 593.714 5.37543C591.25 5.22525 588.171 4.02389 585.245 1.9215C581.55 -0.781569 579.086 -4.23549 578.932 -6.93857C569.694 -12.6451 558.762 -16.3993 547.06 -17C545.674 -14.7474 541.825 -13.0956 537.359 -12.9454C533.356 -12.7952 529.661 -13.8464 527.813 -15.6485C497.634 -8.89079 475 17.3891 475 48.9249ZM596.331 64.3925C598.025 58.5358 601.874 54.4812 604.8 55.2321C607.725 56.1331 608.649 61.5392 606.801 67.3959C605.108 73.2526 601.258 77.3072 598.333 76.5563C595.407 75.6553 594.483 70.2492 596.331 64.3925ZM500.098 21.8942C496.864 26.8498 492.091 29.4027 489.32 27.7509C486.548 26.099 486.856 20.6928 490.089 15.7372C493.323 10.7816 498.096 8.22867 500.868 9.88054C503.485 11.6826 503.177 17.0887 500.098 21.8942ZM553.219 7.92833C553.219 11.9829 548.599 15.4369 542.748 15.4369C536.897 15.4369 532.278 12.1331 532.278 7.92833C532.278 3.87372 536.897 0.419796 542.748 0.419796C548.599 0.419796 553.219 3.72355 553.219 7.92833ZM572.619 31.0546C570.618 25.7986 572.157 20.3925 576.007 19.041C579.856 17.6894 584.475 20.843 586.477 26.099C588.478 31.3549 586.939 36.7611 583.089 38.1126C579.24 39.4642 574.621 36.3106 572.619 31.0546ZM564.921 62.8908C567.692 57.6348 573.697 55.0819 578.162 57.4846C582.627 59.8874 584.167 65.8942 581.242 71.1502C578.47 76.4062 572.465 78.9591 568 76.5563C563.535 74.4539 561.995 68.2969 564.921 62.8908ZM548.599 103.437C554.758 102.536 560.301 103.887 560.609 106.741C561.071 109.594 556.452 112.597 550.139 113.498C543.98 114.399 538.437 113.048 538.129 110.195C537.821 107.341 542.286 104.338 548.599 103.437ZM521.962 78.058C523.348 73.4027 529.199 71.1502 535.05 72.8021C540.901 74.4539 544.596 79.5597 543.21 84.215C541.825 88.8703 535.974 91.1229 530.123 89.471C524.272 87.6689 520.576 82.5631 521.962 78.058ZM506.103 41.5666C506.103 36.0102 510.26 31.5051 515.187 31.5051C520.114 31.5051 524.272 36.0102 524.272 41.5666C524.272 47.1229 520.114 51.628 515.187 51.628C510.26 51.628 506.103 47.1229 506.103 41.5666ZM486.086 79.1092C483.007 74.0034 482.545 68.5973 485.162 67.2457C487.626 65.8942 492.091 68.8976 495.171 74.1536C498.25 79.2594 498.712 84.6655 496.094 86.0171C493.631 87.3686 489.166 84.215 486.086 79.1092Z" fill="#1DCE5C" fill-opacity="0.2"/>
</g>
<defs>
<filter id="filter0_d_529_1343" x="439" y="-4" width="169" height="81" filterUnits="userSpaceOnUse" color-interpolation-filters="sRGB">
<feFlood flood-opacity="0" result="BackgroundImageFix"/>
<feColorMatrix in="SourceAlpha" type="matrix" values="0 0 0 0 0 0 0 0 0 0 0 0 0 0 0 0 0 0 127 0" result="hardAlpha"/>
<feOffset dx="3" dy="3"/>
<feGaussianBlur stdDeviation="12.5"/>
<feComposite in2="hardAlpha" operator="out"/>
<feColorMatrix type="matrix" values="0 0 0 0 0 0 0 0 0 0 0 0 0 0 0 0 0 0 0.15 0"/>
<feBlend mode="normal" in2="BackgroundImageFix" result="effect1_dropShadow_529_1343"/>
<feBlend mode="normal" in="SourceGraphic" in2="effect1_dropShadow_529_1343" result="shape"/>
</filter>
<clipPath id="clip0_529_1343">
<rect width="596" height="68" rx="4" fill="white"/>
</clipPath>
</defs>
</svg>
